<svg width="20.000000" height="20.000000" viewBox="0 0 20 20" fill="none" xmlns="http://www.w3.org/2000/svg" xmlns:xlink="http://www.w3.org/1999/xlink">
	<desc>
			Created with Pixso.
	</desc>
	<defs>
		<clipPath id="clip8_440">
			<rect id="add 1" width="20.000000" height="20.000000" fill="white" fill-opacity="0"/>
		</clipPath>
	</defs>
	<rect id="add 1" width="20.000000" height="20.000000" fill="#FFFFFF" fill-opacity="0"/>
	<g clip-path="url(#clip8_440)">
		<path id="Vector" d="M18.2144 8.21436L12.1428 8.21436C11.9456 8.21436 11.7856 8.05444 11.7856 7.85718L11.7856 1.78564C11.7856 0.799561 10.9861 0 10 0C9.01392 0 8.21436 0.799561 8.21436 1.78564L8.21436 7.85718C8.21436 8.05444 8.05444 8.21436 7.85718 8.21436L1.78564 8.21436C0.799561 8.21436 0 9.01392 0 10C0 10.9861 0.799561 11.7856 1.78564 11.7856L7.85718 11.7856C8.05444 11.7856 8.21436 11.9456 8.21436 12.1428L8.21436 18.2144C8.21436 19.2004 9.01392 20 10 20C10.9861 20 11.7856 19.2004 11.7856 18.2144L11.7856 12.1428C11.7856 11.9456 11.9456 11.7856 12.1428 11.7856L18.2144 11.7856C19.2004 11.7856 20 10.9861 20 10C20 9.01392 19.2004 8.21436 18.2144 8.21436Z" fill="#FFFFFF" fill-opacity="1.000000" fill-rule="nonzero"/>
	</g>
</svg>
