<svg width="30.000000" height="30.000000" viewBox="0 0 30 30" fill="none" xmlns="http://www.w3.org/2000/svg" xmlns:xlink="http://www.w3.org/1999/xlink">
	<desc>
			Created with Pixso.
	</desc>
	<defs>
		<clipPath id="clip3_351">
			<rect id="calendar 2" width="30.000000" height="30.000000" fill="white" fill-opacity="0"/>
		</clipPath>
	</defs>
	<rect id="calendar 2" width="30.000000" height="30.000000" fill="#FFFFFF" fill-opacity="0"/>
	<g clip-path="url(#clip3_351)">
		<path id="Vector" d="M26.4844 2.34375L25.0781 2.34375L25.0781 0L22.7344 0L22.7344 2.34375L7.26562 2.34375L7.26562 0L4.92188 0L4.92188 2.34375L3.51562 2.34375C1.57715 2.34375 0 3.9209 0 5.85938L0 26.4844C0 28.4229 1.57715 30 3.51562 30L26.4844 30C28.4229 30 30 28.4229 30 26.4844L30 5.85938C30 3.9209 28.4229 2.34375 26.4844 2.34375ZM27.6562 26.4844C27.6562 27.1305 27.1306 27.6562 26.4844 27.6562L3.51562 27.6562C2.86938 27.6562 2.34375 27.1305 2.34375 26.4844L2.34375 11.0156L27.6562 11.0156L27.6562 26.4844ZM27.6562 8.67188L2.34375 8.67188L2.34375 5.85938C2.34375 5.21326 2.86938 4.6875 3.51562 4.6875L4.92188 4.6875L4.92188 7.03125L7.26562 7.03125L7.26562 4.6875L22.7344 4.6875L22.7344 7.03125L25.0781 7.03125L25.0781 4.6875L26.4844 4.6875C27.1306 4.6875 27.6562 5.21326 27.6562 5.85938L27.6562 8.67188Z" fill="#000000" fill-opacity="1.000000" fill-rule="nonzero"/>
		<path id="Vector" d="M4.45312 13.4766L6.79688 13.4766L6.79688 15.8203L4.45312 15.8203L4.45312 13.4766Z" fill="#000000" fill-opacity="1.000000" fill-rule="evenodd"/>
		<path id="Vector" d="M9.14062 13.4766L11.4844 13.4766L11.4844 15.8203L9.14062 15.8203L9.14062 13.4766Z" fill="#000000" fill-opacity="1.000000" fill-rule="evenodd"/>
		<path id="Vector" d="M13.8281 13.4766L16.1719 13.4766L16.1719 15.8203L13.8281 15.8203L13.8281 13.4766Z" fill="#000000" fill-opacity="1.000000" fill-rule="evenodd"/>
		<path id="Vector" d="M18.5156 13.4766L20.8594 13.4766L20.8594 15.8203L18.5156 15.8203L18.5156 13.4766Z" fill="#000000" fill-opacity="1.000000" fill-rule="evenodd"/>
		<path id="Vector" d="M23.2031 13.4766L25.5469 13.4766L25.5469 15.8203L23.2031 15.8203L23.2031 13.4766Z" fill="#000000" fill-opacity="1.000000" fill-rule="evenodd"/>
		<path id="Vector" d="M4.45312 18.1641L6.79688 18.1641L6.79688 20.5078L4.45312 20.5078L4.45312 18.1641Z" fill="#000000" fill-opacity="1.000000" fill-rule="evenodd"/>
		<path id="Vector" d="M9.14062 18.1641L11.4844 18.1641L11.4844 20.5078L9.14062 20.5078L9.14062 18.1641Z" fill="#000000" fill-opacity="1.000000" fill-rule="evenodd"/>
		<path id="Vector" d="M13.8281 18.1641L16.1719 18.1641L16.1719 20.5078L13.8281 20.5078L13.8281 18.1641Z" fill="#000000" fill-opacity="1.000000" fill-rule="evenodd"/>
		<path id="Vector" d="M18.5156 18.1641L20.8594 18.1641L20.8594 20.5078L18.5156 20.5078L18.5156 18.1641Z" fill="#000000" fill-opacity="1.000000" fill-rule="evenodd"/>
		<path id="Vector" d="M4.45312 22.8516L6.79688 22.8516L6.79688 25.1953L4.45312 25.1953L4.45312 22.8516Z" fill="#000000" fill-opacity="1.000000" fill-rule="evenodd"/>
		<path id="Vector" d="M9.14062 22.8516L11.4844 22.8516L11.4844 25.1953L9.14062 25.1953L9.14062 22.8516Z" fill="#000000" fill-opacity="1.000000" fill-rule="evenodd"/>
		<path id="Vector" d="M13.8281 22.8516L16.1719 22.8516L16.1719 25.1953L13.8281 25.1953L13.8281 22.8516Z" fill="#000000" fill-opacity="1.000000" fill-rule="evenodd"/>
		<path id="Vector" d="M18.5156 22.8516L20.8594 22.8516L20.8594 25.1953L18.5156 25.1953L18.5156 22.8516Z" fill="#000000" fill-opacity="1.000000" fill-rule="evenodd"/>
		<path id="Vector" d="M23.2031 18.1641L25.5469 18.1641L25.5469 20.5078L23.2031 20.5078L23.2031 18.1641Z" fill="#000000" fill-opacity="1.000000" fill-rule="evenodd"/>
	</g>
</svg>
