<svg width="30.000000" height="30.000000" viewBox="0 0 30 30" fill="none" xmlns="http://www.w3.org/2000/svg" xmlns:xlink="http://www.w3.org/1999/xlink">
	<desc>
			Created with Pixso.
	</desc>
	<defs>
		<clipPath id="clip3_266">
			<rect id="call 1" width="30.000000" height="30.000000" fill="white" fill-opacity="0"/>
		</clipPath>
	</defs>
	<rect id="call 1" width="30.000000" height="30.000000" fill="#FFFFFF" fill-opacity="0"/>
	<g clip-path="url(#clip3_266)">
		<path id="Vector" d="M27.5928 19.6915C25.7561 19.6915 23.9526 19.4043 22.2437 18.8395C21.4062 18.554 20.3767 18.8159 19.8657 19.3408L16.4924 21.8872C12.5806 19.7991 10.1709 17.3901 8.11108 13.5076L10.5828 10.2223C11.2249 9.58105 11.4551 8.64429 11.1792 7.76538C10.6121 6.04736 10.3237 4.24487 10.3237 2.40735C10.324 1.07996 9.2439 0 7.91675 0L2.40723 0C1.07983 0 0 1.07996 0 2.40723C0 17.6221 12.3779 30 27.5928 30C28.9202 30 30 28.92 30 27.5928L30 22.0988C30 20.7715 28.9202 19.6915 27.5928 19.6915Z" fill="#000000" fill-opacity="1.000000" fill-rule="nonzero"/>
	</g>
</svg>
