<svg width="25.000000" height="25.000000" viewBox="0 0 25 25" fill="none" xmlns="http://www.w3.org/2000/svg" xmlns:xlink="http://www.w3.org/1999/xlink">
	<desc>
			Created with Pixso.
	</desc>
	<defs>
		<clipPath id="clip8_780">
			<rect id="instagram (1) 1" width="25.000000" height="25.000000" fill="white" fill-opacity="0"/>
		</clipPath>
	</defs>
	<rect id="instagram (1) 1" width="25.000000" height="25.000000" fill="#FFFFFF" fill-opacity="0"/>
	<g clip-path="url(#clip8_780)">
		<path id="Vector" d="M14.8926 12.5C14.8926 13.8213 13.8213 14.8926 12.5 14.8926C11.1787 14.8926 10.1074 13.8213 10.1074 12.5C10.1074 11.1787 11.1787 10.1074 12.5 10.1074C13.8213 10.1074 14.8926 11.1787 14.8926 12.5Z" fill="#000000" fill-opacity="1.000000" fill-rule="nonzero"/>
		<path id="Vector" d="M18.0955 8.26709C17.9805 7.95508 17.7969 7.67334 17.5586 7.44141C17.3269 7.20312 17.0452 7.01953 16.7332 6.90479C16.4802 6.80664 16.1003 6.68945 15.4006 6.65771C14.6436 6.62305 14.4165 6.61572 12.5 6.61572C10.5833 6.61572 10.3564 6.62305 9.59961 6.65771C8.89966 6.68945 8.51953 6.80664 8.26685 6.90479C7.95508 7.01953 7.67285 7.20312 7.44165 7.44141C7.20312 7.67334 7.01953 7.95508 6.90454 8.26709C6.80615 8.52002 6.68921 8.8999 6.65747 9.59961C6.6228 10.3564 6.61548 10.5835 6.61548 12.5005C6.61548 14.417 6.6228 14.6436 6.65747 15.4009C6.68921 16.1006 6.80615 16.4805 6.90454 16.7334C7.01953 17.0454 7.20288 17.3271 7.44141 17.5586C7.67285 17.7974 7.95483 17.9805 8.2666 18.0957C8.51953 18.1943 8.89966 18.311 9.59961 18.3428C10.3564 18.3774 10.5833 18.3848 12.4998 18.3848C14.4167 18.3848 14.6438 18.3774 15.4004 18.3428C16.1001 18.311 16.4802 18.1943 16.7332 18.0957C17.3591 17.854 17.854 17.3594 18.0955 16.7334C18.1936 16.4805 18.3105 16.1006 18.3425 15.4009C18.3772 14.6436 18.3843 14.417 18.3843 12.5005C18.3843 10.5835 18.3772 10.3564 18.3425 9.59961C18.3108 8.8999 18.1938 8.52002 18.0955 8.26709ZM12.5 16.186C10.4644 16.186 8.81396 14.5356 8.81396 12.5C8.81396 10.4644 10.4644 8.81445 12.5 8.81445C14.5356 8.81445 16.1858 10.4644 16.1858 12.5C16.1858 14.5356 14.5356 16.186 12.5 16.186ZM16.3315 9.52979C15.8557 9.52979 15.4702 9.14453 15.4702 8.66846C15.4702 8.19287 15.8557 7.80713 16.3315 7.80713C16.8071 7.80713 17.1929 8.19287 17.1929 8.66846C17.1926 9.14453 16.8071 9.52979 16.3315 9.52979Z" fill="#000000" fill-opacity="1.000000" fill-rule="nonzero"/>
		<path id="Vector" d="M12.5 0C5.59741 0 0 5.59766 0 12.5C0 19.4023 5.59741 25 12.5 25C19.4026 25 25 19.4023 25 12.5C25 5.59766 19.4026 0 12.5 0ZM19.6345 15.4595C19.5996 16.2231 19.4783 16.7451 19.3008 17.2017C18.928 18.166 18.1658 18.9277 17.2017 19.3008C16.7451 19.478 16.2234 19.5996 15.4595 19.6343C14.6941 19.6694 14.4495 19.6777 12.5002 19.6777C10.5508 19.6777 10.3064 19.6694 9.54077 19.6343C8.77686 19.5996 8.25488 19.478 7.79858 19.3008C7.31934 19.1206 6.88574 18.8379 6.5271 18.4727C6.16211 18.1143 5.87964 17.6807 5.69946 17.2017C5.52197 16.7451 5.40039 16.2231 5.36572 15.4595C5.33057 14.6938 5.32227 14.4492 5.32227 12.5C5.32227 10.5508 5.33057 10.3062 5.36548 9.54053C5.40039 8.77686 5.52148 8.25488 5.69897 7.79834C5.87915 7.31934 6.16187 6.88574 6.5271 6.52734C6.8855 6.16211 7.31934 5.87939 7.79834 5.69922C8.25488 5.52197 8.77661 5.40039 9.54077 5.36572C10.3062 5.33057 10.5508 5.32227 12.5 5.32227C14.4492 5.32227 14.6938 5.33057 15.4592 5.36572C16.2234 5.40039 16.7451 5.52197 17.2017 5.69873C17.6807 5.87939 18.1145 6.16211 18.4731 6.52734C18.8381 6.88574 19.1208 7.31934 19.3008 7.79834C19.4785 8.25488 19.5996 8.77686 19.6345 9.54053C19.6694 10.3062 19.6777 10.5508 19.6777 12.5C19.6777 14.4492 19.6694 14.6938 19.6345 15.4595Z" fill="#000000" fill-opacity="1.000000" fill-rule="nonzero"/>
	</g>
</svg>
