<svg width="25.000000" height="25.000000" viewBox="0 0 25 25" fill="none" xmlns="http://www.w3.org/2000/svg" xmlns:xlink="http://www.w3.org/1999/xlink">
	<desc>
			Created with Pixso.
	</desc>
	<defs>
		<clipPath id="clip8_778">
			<rect id="linkedin 1" width="25.000000" height="25.000000" fill="white" fill-opacity="0"/>
		</clipPath>
	</defs>
	<rect id="linkedin 1" width="25.000000" height="25.000000" fill="#FFFFFF" fill-opacity="0"/>
	<g clip-path="url(#clip8_778)">
		<path id="Vector" d="M12.5 0C5.59741 0 0 5.59766 0 12.5C0 19.4023 5.59741 25 12.5 25C19.4026 25 25 19.4023 25 12.5C25 5.59766 19.4026 0 12.5 0ZM8.86768 18.8965L5.82324 18.8965L5.82324 9.73779L8.86768 9.73779L8.86768 18.8965ZM7.3457 8.48682L7.32568 8.48682C6.3042 8.48682 5.64355 7.78369 5.64355 6.90479C5.64355 6.00586 6.32446 5.32227 7.36572 5.32227C8.40723 5.32227 9.0481 6.00586 9.06787 6.90479C9.06787 7.78369 8.40723 8.48682 7.3457 8.48682ZM19.8447 18.8965L16.8008 18.8965L16.8008 13.9966C16.8008 12.7651 16.3601 11.9253 15.2585 11.9253C14.4177 11.9253 13.9167 12.4922 13.6968 13.0391C13.6162 13.2344 13.5964 13.5078 13.5964 13.7817L13.5964 18.8965L10.5525 18.8965C10.5525 18.8965 10.5923 10.5967 10.5525 9.73779L13.5964 9.73779L13.5964 11.0342C14.001 10.4102 14.7249 9.52246 16.3401 9.52246C18.343 9.52246 19.8447 10.8315 19.8447 13.645L19.8447 18.8965Z" fill="#000000" fill-opacity="1.000000" fill-rule="nonzero"/>
	</g>
</svg>
